<?xml version="1.0" encoding="UTF-8"?>
<svg width="752pt" height="752pt" version="1.1" viewBox="0 0 752 752" xmlns="http://www.w3.org/2000/svg">
 <g fill="#fff">
  <path d="m376 551.23c-46.473 0-91.039-18.461-123.9-51.324-32.859-32.859-51.32-77.43-51.32-123.9s18.461-91.039 51.32-123.9c32.863-32.859 77.43-51.32 123.9-51.32s91.043 18.461 123.9 51.32c32.863 32.863 51.324 77.43 51.324 123.9 0 30.762-8.0977 60.977-23.477 87.613s-37.5 48.758-64.137 64.137-56.852 23.477-87.613 23.477zm0-331.51c-41.445 0-81.199 16.465-110.51 45.773-29.309 29.309-45.773 69.062-45.773 110.51 0 41.449 16.465 81.199 45.773 110.51 29.309 29.309 69.062 45.773 110.51 45.773 41.449 0 81.199-16.465 110.51-45.773 29.309-29.309 45.773-69.059 45.773-110.51 0-41.445-16.465-81.199-45.773-110.51-29.309-29.309-69.059-45.773-110.51-45.773z"/>
  <path d="m374.72 447.94-52.52 11.508c-1.6211 0.36328-3.3203 0.007813-4.6602-0.97266-1.3438-0.97656-2.1992-2.4883-2.3477-4.1406l-5.2578-53.469c-0.078125-0.83203-0.33984-1.6406-0.75781-2.3672l-27.184-46.172c-0.82812-1.4336-1.0039-3.1523-0.48828-4.7227 0.51563-1.5742 1.6719-2.8516 3.1875-3.5195l49.254-21.547c0.76953-0.32812 1.4609-0.8125 2.0352-1.4219l35.707-40.207c1.1133-1.2148 2.6836-1.9102 4.332-1.9102 1.6484 0 3.2227 0.69531 4.3359 1.9102l35.707 40.207c0.54297 0.63672 1.2227 1.1367 1.9883 1.4688l49.254 21.547c1.4883 0.67969 2.6289 1.9492 3.1406 3.5078 0.51172 1.5547 0.35156 3.2539-0.44141 4.6875l-27.23 46.219c-0.42188 0.72656-0.67969 1.5352-0.75781 2.3672l-5.3047 53.469c-0.15234 1.6523-1.0078 3.1641-2.3477 4.1406-1.3438 0.98047-3.0391 1.3359-4.6602 0.97266l-52.523-11.555c-0.80859-0.1875-1.6523-0.1875-2.4609 0z"/>
 </g>
</svg>