<?xml version="1.0" encoding="UTF-8"?>
<svg width="752pt" height="752pt" version="1.1" viewBox="0 0 752 752" xmlns="http://www.w3.org/2000/svg">
 <path d="m421.09 392.28-44.594-80.609-44.594 80.609-42.723-38.184v68.77h174.63v-68.77zm0 0-44.594-80.609-44.594 80.609-42.723-38.184v68.77h174.63v-68.77zm0 0-44.594-80.609-44.594 80.609-42.723-38.184v68.77h174.63v-68.77zm0 0-44.594-80.609-44.594 80.609-42.723-38.184v68.77h174.63v-68.77zm-45.09-220.91c-112.97 0-204.62 91.656-204.62 204.62s91.656 204.63 204.62 204.63 204.63-91.66 204.63-204.63-91.66-204.62-204.63-204.62zm-94.715 165.06 48.543 43.312 46.668-84.457 46.668 84.457 48.543-43.312v94.32h-190.42zm-15.094-8.4844-19.734-19.734 3.4531-3.4531 19.734 19.734zm-9.8672-31.574 3.4531-3.4531 19.734 19.734-3.4531 3.4531zm217.35 164.96h-194.36v-7.8945h194.37zm-3.2539-147.8 19.734-19.734 3.4531 3.4531-19.734 19.734zm15.391 13.418-3.4531-3.4531 19.734-19.734 3.4531 3.4531zm-109.32-15.293-44.594 80.609-42.723-38.184v68.77h174.63v-68.77l-42.723 38.184zm44.594 80.609-44.594-80.609-44.594 80.609-42.723-38.184v68.77h174.63v-68.77zm0 0-44.594-80.609-44.594 80.609-42.723-38.184v68.77h174.63v-68.77z" fill="#fff"/>
</svg>